<?xml version="1.0" encoding="UTF-8" standalone="no"?>
<!-- Created with Inkscape (http://www.inkscape.org/) -->

<svg
   width="55mm"
   height="55mm"
   viewBox="0 0 54.999998 55"
   version="1.1"
   id="svg1"
   inkscape:version="1.4 (1:1.4+202410161351+e7c3feb100)"
   sodipodi:docname="bikepacking.svg"
   inkscape:export-filename="bikepacking.png"
   inkscape:export-xdpi="300"
   inkscape:export-ydpi="300"
   xmlns:inkscape="http://www.inkscape.org/namespaces/inkscape"
   xmlns:sodipodi="http://sodipodi.sourceforge.net/DTD/sodipodi-0.dtd"
   xmlns="http://www.w3.org/2000/svg"
   xmlns:svg="http://www.w3.org/2000/svg">
  <sodipodi:namedview
     id="namedview1"
     pagecolor="#505050"
     bordercolor="#eeeeee"
     borderopacity="1"
     inkscape:showpageshadow="0"
     inkscape:pageopacity="0"
     inkscape:pagecheckerboard="0"
     inkscape:deskcolor="#505050"
     inkscape:document-units="mm"
     inkscape:zoom="1.4142136"
     inkscape:cx="-202.58609"
     inkscape:cy="107.48023"
     inkscape:window-width="2527"
     inkscape:window-height="1408"
     inkscape:window-x="33"
     inkscape:window-y="0"
     inkscape:window-maximized="1"
     inkscape:current-layer="layer1" />
  <defs
     id="defs1">
    <clipPath
       clipPathUnits="userSpaceOnUse"
       id="clipPath30">
      <rect
         style="fill:#ffd42a;stroke-width:0.264583"
         id="rect30"
         width="50"
         height="50"
         x="63.547295"
         y="48.162159" />
    </clipPath>
  </defs>
  <g
     inkscape:label="Layer 1"
     inkscape:groupmode="layer"
     id="layer1"
     transform="translate(-61.047295,-45.662159)">
    <rect
       style="fill:#aaccff;fill-opacity:1;stroke:#aaccff;stroke-width:5;stroke-linejoin:round;stroke-dasharray:none;stroke-opacity:1"
       id="rect1"
       width="50"
       height="50"
       x="63.547295"
       y="48.162159" />
    <rect
       style="fill:none;fill-opacity:1;stroke:#ffffff;stroke-width:1.5;stroke-linejoin:miter;stroke-dasharray:none;stroke-opacity:1"
       id="rect1-7"
       width="50"
       height="50"
       x="63.547295"
       y="48.162159" />
    <path
       style="fill:none;stroke:#ffffff;stroke-width:1;stroke-linecap:round;stroke-linejoin:round;stroke-dasharray:none;paint-order:stroke fill markers"
       d="m 65.897222,80.58783 c 7.755152,0.37846 38.304788,0.588262 44.705748,0.386944"
       id="path7"
       sodipodi:nodetypes="cc" />
    <g
       id="g1"
       transform="matrix(1.3578027,0,0,1.3578027,-31.416605,-28.469228)">
      <ellipse
         style="fill:#ffffff;fill-opacity:1;stroke:#ffffff;stroke-width:0.515049;stroke-linecap:round;stroke-linejoin:round;stroke-dasharray:none;stroke-opacity:1;paint-order:stroke fill markers"
         id="path6"
         cx="30.218309"
         cy="102.23534"
         rx="0.93148166"
         ry="1.124202"
         transform="rotate(-36.65332)" />
      <circle
         style="fill:none;stroke:#ffffff;stroke-width:0.8;stroke-linecap:round;stroke-linejoin:round;stroke-dasharray:none;paint-order:stroke fill markers"
         id="path4"
         cx="109.37682"
         cy="18.545725"
         r="3.4557521"
         transform="rotate(33.326742)" />
      <circle
         style="fill:none;stroke:#ffffff;stroke-width:0.8;stroke-linecap:round;stroke-linejoin:round;stroke-dasharray:none;paint-order:stroke fill markers"
         id="path4-5"
         cx="121.93845"
         cy="10.434144"
         r="3.4557521"
         transform="rotate(33.326742)" />
      <path
         style="fill:none;fill-opacity:1;stroke:#ffffff;stroke-width:0.8;stroke-linecap:round;stroke-linejoin:round;stroke-dasharray:none;stroke-opacity:1;paint-order:stroke fill markers"
         d="m 81.42962,75.160735 2.204354,-5.707019"
         id="path8"
         sodipodi:nodetypes="cc" />
      <path
         style="fill:none;fill-opacity:1;stroke:#ffffff;stroke-width:0.8;stroke-linecap:round;stroke-linejoin:round;stroke-dasharray:none;stroke-opacity:1;paint-order:stroke fill markers"
         d="M 83.67575,69.36965 82.612217,68.75451"
         id="path8-3"
         sodipodi:nodetypes="cc" />
      <g
         id="g3"
         transform="rotate(27.869148,84.93713,80.238916)">
        <path
           style="fill:none;fill-opacity:1;stroke:#ffffff;stroke-width:0.799999;stroke-linecap:round;stroke-linejoin:round;stroke-dasharray:none;stroke-opacity:1;paint-order:stroke fill markers"
           d="m 79.09909,72.620877 7.298719,1.759392 6.173925,-3.461139 -6.355661,-1.419218"
           id="path9"
           sodipodi:nodetypes="cccc" />
        <path
           style="fill:none;fill-opacity:1;stroke:#ffffff;stroke-width:0.799999;stroke-linecap:round;stroke-linejoin:round;stroke-dasharray:none;stroke-opacity:1;paint-order:stroke fill markers"
           d="m 78.97167,72.487496 7.310871,-3.151973 0.02172,4.67057"
           id="path10"
           sodipodi:nodetypes="ccc" />
      </g>
      <path
         style="fill:none;fill-opacity:1;stroke:#ffffff;stroke-width:0.6;stroke-linecap:round;stroke-linejoin:round;stroke-dasharray:none;stroke-opacity:1;paint-order:stroke fill markers"
         d="m 92.123952,69.516557 -1.254728,2.48062"
         id="path11"
         sodipodi:nodetypes="cc" />
      <path
         style="fill:none;fill-opacity:1;stroke:#ffffff;stroke-width:0.600001;stroke-linecap:round;stroke-linejoin:round;stroke-dasharray:none;stroke-opacity:1;paint-order:stroke fill markers"
         d="m 91.054146,69.039797 1.973959,0.114743"
         id="path12" />
      <path
         style="fill:none;fill-opacity:1;stroke:#ffffff;stroke-width:0.6;stroke-linecap:round;stroke-linejoin:round;stroke-dasharray:none;stroke-opacity:1;paint-order:stroke fill markers"
         d="m 81.74252,70.359636 c 0,0 -1.061272,-0.23986 -0.971804,-1.001812 0.08946,-0.761951 1.05545,-0.703519 1.05545,-0.703519 l 1.252813,0.136607"
         id="path12-6"
         sodipodi:nodetypes="czcc" />
      <path
         style="fill:none;fill-opacity:1;stroke:#ffffff;stroke-width:0.8;stroke-linecap:round;stroke-linejoin:round;stroke-dasharray:none;stroke-opacity:1;paint-order:stroke fill markers"
         d="m 88.141629,74.018929 1.219167,2.95586"
         id="path12-6-6"
         sodipodi:nodetypes="cc" />
      <path
         style="fill:#ffffff;fill-opacity:1;stroke:#ffffff;stroke-width:0.799999;stroke-linecap:round;stroke-linejoin:round;stroke-dasharray:none;stroke-opacity:1;paint-order:stroke fill markers"
         d="m 88.060335,73.877974 -0.58262,-3.875013 3.071395,-1.842599 -1.335477,-0.883044 -2.667686,-0.541117 -1.428086,2.256846 -1.829663,1.383333 0.01368,-0.03011 1.758426,-1.306758 1.137204,-2.934547 -2.485825,2.065654 -1.950403,1.728103 v 10e-7 l 1.99021,-1.855345 1.298688,-1.425797 c 0,0 1.189057,-1.222524 1.833503,-1.412179 0.644446,-0.189654 4.085108,1.246529 4.085108,1.246529 0,0 1.395472,0.785974 1.55131,1.370834 0.155847,0.584859 -0.503939,1.141811 -0.503939,1.141811 l -1.923962,3.563369 -0.562709,4.263208 0.05009,0.03375 -0.07014,-4.472874 0.895704,-2.440008 -2.227603,0.382375 -0.137516,3.614209 z"
         id="path13"
         sodipodi:nodetypes="ccccccccccccccczczccccccccc" />
      <path
         style="fill:#ffffff;fill-opacity:1;stroke:#ffffff;stroke-width:0.6;stroke-linecap:round;stroke-linejoin:round;stroke-dasharray:none;stroke-opacity:1;paint-order:stroke fill markers"
         d="m 85.991027,62.937954 -2.088555,1.055471 c 0,0 -0.09445,-0.786781 0.205761,-1.113595 0.300243,-0.326813 0.465378,-0.34365 0.946406,-0.506785 0.481028,-0.163133 0.936388,0.564909 0.936388,0.564909 z"
         id="path14"
         sodipodi:nodetypes="cczzc" />
      <path
         style="fill:#ffffff;fill-opacity:1;stroke:#ffffff;stroke-width:0.622015;stroke-linecap:round;stroke-linejoin:round;stroke-dasharray:none;stroke-opacity:1;paint-order:stroke fill markers"
         d="m 96.493597,70.628312 -4.32181,0.451483 c 0,0 0.456027,-0.523274 0.876224,-0.710585 0.420227,-0.187295 2.910875,-1.274609 3.435702,-1.231738 0.524823,0.04292 0.342089,1.480105 0.0099,1.49084 z"
         id="path14-3"
         sodipodi:nodetypes="cczzc" />
    </g>
  </g>
</svg>
