<?xml version="1.0" encoding="UTF-8" standalone="no"?>
<!-- Created with Inkscape (http://www.inkscape.org/) -->

<svg
   width="55mm"
   height="55mm"
   viewBox="0 0 54.999998 55"
   version="1.1"
   id="svg1"
   inkscape:version="1.4 (1:1.4+202410161351+e7c3feb100)"
   sodipodi:docname="bouldering.svg"
   inkscape:export-filename="bouldering.png"
   inkscape:export-xdpi="300"
   inkscape:export-ydpi="300"
   xmlns:inkscape="http://www.inkscape.org/namespaces/inkscape"
   xmlns:sodipodi="http://sodipodi.sourceforge.net/DTD/sodipodi-0.dtd"
   xmlns="http://www.w3.org/2000/svg"
   xmlns:svg="http://www.w3.org/2000/svg">
  <sodipodi:namedview
     id="namedview1"
     pagecolor="#505050"
     bordercolor="#eeeeee"
     borderopacity="1"
     inkscape:showpageshadow="0"
     inkscape:pageopacity="0"
     inkscape:pagecheckerboard="0"
     inkscape:deskcolor="#505050"
     inkscape:document-units="mm"
     inkscape:zoom="1"
     inkscape:cx="9"
     inkscape:cy="317"
     inkscape:window-width="2560"
     inkscape:window-height="1408"
     inkscape:window-x="1680"
     inkscape:window-y="0"
     inkscape:window-maximized="1"
     inkscape:current-layer="layer1" />
  <defs
     id="defs1">
    <clipPath
       clipPathUnits="userSpaceOnUse"
       id="clipPath30">
      <rect
         style="fill:#ffd42a;stroke-width:0.264583"
         id="rect30"
         width="50"
         height="50"
         x="63.547295"
         y="48.162159" />
    </clipPath>
  </defs>
  <g
     inkscape:label="Layer 1"
     inkscape:groupmode="layer"
     id="layer1"
     transform="translate(-61.047295,-45.662159)">
    <rect
       style="fill:#aaccff;fill-opacity:1;stroke:#aaccff;stroke-width:5;stroke-linejoin:round;stroke-dasharray:none;stroke-opacity:1"
       id="rect1"
       width="50"
       height="50"
       x="63.547295"
       y="48.162159" />
    <rect
       style="fill:none;fill-opacity:1;stroke:#ffffff;stroke-width:1.5;stroke-linejoin:miter;stroke-dasharray:none;stroke-opacity:1"
       id="rect1-7"
       width="50"
       height="50"
       x="63.547295"
       y="48.162159" />
    <path
       style="fill:none;stroke:#ffffff;stroke-width:1.5;stroke-linecap:round;stroke-linejoin:round;stroke-dasharray:none;stroke-opacity:1;paint-order:stroke fill markers"
       d="m 66.272815,94.940805 c 0,0 2.252769,-17.909519 4.894793,-22.621875 2.642023,-4.712357 8.449306,-10.10065 12.964583,-11.310938 4.515277,-1.210288 9.680796,-1.547146 13.295312,-3.373437 3.614517,-1.826291 8.665107,-7.077604 8.665107,-7.077604"
       id="path1"
       sodipodi:nodetypes="czzzc" />
    <path
       style="fill:#ffffff;fill-opacity:1;stroke:#ffffff;stroke-width:1.5;stroke-linecap:round;stroke-linejoin:round;stroke-dasharray:none;stroke-opacity:1;paint-order:stroke fill markers"
       d="m 71.167607,78.933513 8.598958,-4.167188 8.83047,3.340364 3.274218,-0.926045 3.307292,-7.24297 -6.283854,-2.182812 -3.241146,-4.960937 h 0.330729 l 3.175,4.431771 8.466666,0.661458 6.28385,2.645833 1.65365,7.209896 -3.77031,6.746875 -0.19844,-0.132292 2.84427,-6.81302 -2.91042,-4.828647 c 0,0 -3.131721,5.78047 -5.027079,7.540625 -1.895358,1.760155 -5.622396,3.175 -5.622396,3.175 l -12.170833,-1.190625 -8.929687,6.217708 -0.595313,-0.661458 8.995834,-7.276041 9.593899,0.353426 -8.088595,-4.105742 -8.252179,3.223149 z"
       id="path5"
       sodipodi:nodetypes="cccccccccccccccczccccccccc" />
    <ellipse
       style="fill:#ffffff;fill-opacity:1;stroke:#ffffff;stroke-width:1.5;stroke-linecap:round;stroke-linejoin:round;stroke-dasharray:none;stroke-opacity:1;paint-order:stroke fill markers"
       id="path6"
       cx="121.28888"
       cy="3.9522033"
       rx="2.7127855"
       ry="3.2740517"
       transform="rotate(30.012923)" />
  </g>
</svg>
