<?xml version="1.0" encoding="UTF-8" standalone="no"?>
<!-- Created with Inkscape (http://www.inkscape.org/) -->

<svg
   width="55mm"
   height="55mm"
   viewBox="0 0 54.999998 55"
   version="1.1"
   id="svg1"
   inkscape:version="1.4.1 (1:1.4.1+202503302257+93de688d07)"
   sodipodi:docname="gravel_grey.svg"
   inkscape:export-filename="gravel_grey.png"
   inkscape:export-xdpi="300"
   inkscape:export-ydpi="300"
   xmlns:inkscape="http://www.inkscape.org/namespaces/inkscape"
   xmlns:sodipodi="http://sodipodi.sourceforge.net/DTD/sodipodi-0.dtd"
   xmlns="http://www.w3.org/2000/svg"
   xmlns:svg="http://www.w3.org/2000/svg">
  <sodipodi:namedview
     id="namedview1"
     pagecolor="#505050"
     bordercolor="#eeeeee"
     borderopacity="1"
     inkscape:showpageshadow="0"
     inkscape:pageopacity="0"
     inkscape:pagecheckerboard="0"
     inkscape:deskcolor="#505050"
     inkscape:document-units="mm"
     inkscape:zoom="4.0000001"
     inkscape:cx="56.624999"
     inkscape:cy="101.5"
     inkscape:window-width="2527"
     inkscape:window-height="1408"
     inkscape:window-x="33"
     inkscape:window-y="0"
     inkscape:window-maximized="1"
     inkscape:current-layer="layer1" />
  <defs
     id="defs1">
    <clipPath
       clipPathUnits="userSpaceOnUse"
       id="clipPath30">
      <rect
         style="fill:#ffd42a;stroke-width:0.264583"
         id="rect30"
         width="50"
         height="50"
         x="63.547295"
         y="48.162159" />
    </clipPath>
  </defs>
  <g
     inkscape:label="Layer 1"
     inkscape:groupmode="layer"
     id="layer1"
     transform="translate(-61.047295,-45.662159)">
    <rect
       style="fill:#cecece;fill-opacity:1;stroke:#cecece;stroke-width:5;stroke-linejoin:round;stroke-dasharray:none;stroke-opacity:1"
       id="rect1"
       width="50"
       height="50"
       x="63.547295"
       y="48.162159" />
    <rect
       style="fill:none;fill-opacity:1;stroke:#ffffff;stroke-width:1.5;stroke-linejoin:miter;stroke-dasharray:none;stroke-opacity:1"
       id="rect1-7"
       width="50"
       height="50"
       x="63.547295"
       y="48.162159" />
    <path
       style="fill:none;stroke:#ffffff;stroke-width:1;stroke-linecap:round;stroke-linejoin:round;stroke-dasharray:none;paint-order:stroke fill markers"
       d="m 65.843197,78.847223 3.672461,1.232781 3.162201,-1.514926 8.88979,1.383523 4.386906,-0.997526 3.911676,1.5311 5.062653,-1.683766 6.545936,0.707697 2.62902,-1.504394 2.75037,0.06876 4.20205,0.860678"
       id="path7"
       sodipodi:nodetypes="ccccccccccc" />
    <g
       id="g1"
       transform="matrix(1.1322863,0.58687523,-0.58687523,1.1322863,36.323743,-63.065374)">
      <g
         id="g3"
         transform="rotate(3.1791715,84.671784,71.3063)">
        <ellipse
           style="fill:#ffffff;fill-opacity:1;stroke:#ffffff;stroke-width:0.515049;stroke-linecap:round;stroke-linejoin:round;stroke-dasharray:none;stroke-opacity:1;paint-order:stroke fill markers"
           id="path6"
           cx="-58.096928"
           cy="84.344589"
           rx="0.93148166"
           ry="1.124202"
           transform="rotate(-83.428598)" />
        <circle
           style="fill:none;stroke:#ffffff;stroke-width:0.8;stroke-linecap:round;stroke-linejoin:round;stroke-dasharray:none;paint-order:stroke fill markers"
           id="path4"
           cx="80.115784"
           cy="79.305809"
           r="3.4557521" />
        <circle
           style="fill:none;stroke:#ffffff;stroke-width:0.8;stroke-linecap:round;stroke-linejoin:round;stroke-dasharray:none;paint-order:stroke fill markers"
           id="path4-5"
           cx="92.677422"
           cy="71.194229"
           r="3.4557521" />
        <path
           style="fill:none;fill-opacity:1;stroke:#ffffff;stroke-width:0.8;stroke-linecap:round;stroke-linejoin:round;stroke-dasharray:none;stroke-opacity:1;paint-order:stroke fill markers"
           d="m 80.071854,78.822234 -1.29366,-5.979606"
           id="path8"
           sodipodi:nodetypes="cc" />
        <path
           style="fill:none;fill-opacity:1;stroke:#ffffff;stroke-width:0.8;stroke-linecap:round;stroke-linejoin:round;stroke-dasharray:none;stroke-opacity:1;paint-order:stroke fill markers"
           d="m 78.766917,72.749432 -1.226604,0.07034"
           id="path8-3"
           sodipodi:nodetypes="cc" />
        <g
           id="g2"
           transform="rotate(-5.4575945,94.799172,71.714615)">
          <path
             style="fill:none;fill-opacity:1;stroke:#ffffff;stroke-width:0.799999;stroke-linecap:round;stroke-linejoin:round;stroke-dasharray:none;stroke-opacity:1;paint-order:stroke fill markers"
             d="m 79.09909,72.620877 7.298719,1.759392 6.173925,-3.461139 -6.355661,-1.419218"
             id="path9"
             sodipodi:nodetypes="cccc" />
          <path
             style="fill:none;fill-opacity:1;stroke:#ffffff;stroke-width:0.799999;stroke-linecap:round;stroke-linejoin:round;stroke-dasharray:none;stroke-opacity:1;paint-order:stroke fill markers"
             d="m 78.97167,72.487496 7.310871,-3.151973 0.02172,4.67057"
             id="path10"
             sodipodi:nodetypes="ccc" />
        </g>
        <path
           style="fill:none;fill-opacity:1;stroke:#ffffff;stroke-width:0.6;stroke-linecap:round;stroke-linejoin:round;stroke-dasharray:none;stroke-opacity:1;paint-order:stroke fill markers"
           d="m 85.90653,68.230632 0.314494,2.762049"
           id="path11"
           sodipodi:nodetypes="cc" />
        <path
           style="fill:none;fill-opacity:1;stroke:#ffffff;stroke-width:0.600001;stroke-linecap:round;stroke-linejoin:round;stroke-dasharray:none;stroke-opacity:1;paint-order:stroke fill markers"
           d="m 84.750713,68.420042 1.712386,-0.988646"
           id="path12" />
        <path
           style="fill:none;fill-opacity:1;stroke:#ffffff;stroke-width:0.6;stroke-linecap:round;stroke-linejoin:round;stroke-dasharray:none;stroke-opacity:1;paint-order:stroke fill markers"
           d="m 77.695509,74.638763 c 0,0 -1.018523,0.382656 -1.3624,-0.303144 -0.343877,-0.685801 0.495359,-1.167704 0.495359,-1.167704 l 1.121845,-0.574171"
           id="path12-6"
           sodipodi:nodetypes="czcc" />
        <path
           style="fill:none;fill-opacity:1;stroke:#ffffff;stroke-width:0.8;stroke-linecap:round;stroke-linejoin:round;stroke-dasharray:none;stroke-opacity:1;paint-order:stroke fill markers"
           d="m 84.985281,75.542495 3.579528,-0.445743"
           id="path12-6-6"
           sodipodi:nodetypes="cc" />
        <path
           style="fill:#ffffff;fill-opacity:1;stroke:#ffffff;stroke-width:0.799999;stroke-linecap:round;stroke-linejoin:round;stroke-dasharray:none;stroke-opacity:1;paint-order:stroke fill markers"
           d="m 84.761626,75.272894 -1.845921,-3.679575 0.929852,-3.630617 -1.601016,-0.0041 -2.526284,1.01353 0.0467,2.67032 -0.768753,2.161084 -0.0051,-0.03268 0.751304,-2.057965 -0.662091,-3.076755 -0.942132,3.091701 -0.680221,2.515496 10e-7,10e-7 0.643569,-2.643682 0.301773,-1.904844 c 0,0 0.321842,-1.674761 0.756112,-2.187295 0.43427,-0.512533 4.098174,-1.202872 4.098174,-1.202872 0,0 1.597815,-0.10997 2.049357,0.293089 0.451542,0.40306 0.206254,1.230917 0.206254,1.230917 l 0.488842,3.440558 2.396589,3.691676 -0.0125,0.01313 -2.677842,-3.416064 -1.020633,-2.052551 -0.952418,1.769127 1.045105,4.021295 z"
           id="path13"
           sodipodi:nodetypes="ccccccccccccccczczccccccccc" />
        <path
           style="fill:#ffffff;fill-opacity:1;stroke:#ffffff;stroke-width:0.6;stroke-linecap:round;stroke-linejoin:round;stroke-dasharray:none;stroke-opacity:1;paint-order:stroke fill markers"
           d="m 76.868015,65.971993 -0.69674,2.543754 c 0,0 -0.511544,-0.881594 -0.541893,-1.374936 -0.03035,-0.493342 -0.06021,-0.582723 0.169134,-1.035938 0.229348,-0.453215 1.069499,-0.13288 1.069499,-0.13288 z"
           id="path14"
           sodipodi:nodetypes="cczzc" />
      </g>
    </g>
  </g>
</svg>
