<?xml version="1.0" encoding="UTF-8" standalone="no"?>
<!-- Created with Inkscape (http://www.inkscape.org/) -->

<svg
   width="55mm"
   height="55mm"
   viewBox="0 0 54.999998 55"
   version="1.1"
   id="svg1"
   inkscape:version="1.4.1 (1:1.4.1+202503302257+93de688d07)"
   sodipodi:docname="multi-pitch-climbing_grey.svg"
   inkscape:export-filename="multi-pitch-climbing_grey.png"
   inkscape:export-xdpi="300"
   inkscape:export-ydpi="300"
   xmlns:inkscape="http://www.inkscape.org/namespaces/inkscape"
   xmlns:sodipodi="http://sodipodi.sourceforge.net/DTD/sodipodi-0.dtd"
   xmlns="http://www.w3.org/2000/svg"
   xmlns:svg="http://www.w3.org/2000/svg">
  <sodipodi:namedview
     id="namedview1"
     pagecolor="#505050"
     bordercolor="#eeeeee"
     borderopacity="1"
     inkscape:showpageshadow="0"
     inkscape:pageopacity="0"
     inkscape:pagecheckerboard="0"
     inkscape:deskcolor="#505050"
     inkscape:document-units="mm"
     inkscape:zoom="2.8284271"
     inkscape:cx="-39.06765"
     inkscape:cy="85.913475"
     inkscape:window-width="2527"
     inkscape:window-height="1408"
     inkscape:window-x="33"
     inkscape:window-y="0"
     inkscape:window-maximized="1"
     inkscape:current-layer="layer1" />
  <defs
     id="defs1">
    <clipPath
       clipPathUnits="userSpaceOnUse"
       id="clipPath30">
      <rect
         style="fill:#ffd42a;stroke-width:0.264583"
         id="rect30"
         width="50"
         height="50"
         x="63.547295"
         y="48.162159" />
    </clipPath>
  </defs>
  <g
     inkscape:label="Layer 1"
     inkscape:groupmode="layer"
     id="layer1"
     transform="translate(-61.047295,-45.662159)">
    <rect
       style="fill:#cecece;fill-opacity:1;stroke:#cecece;stroke-width:5;stroke-linejoin:round;stroke-dasharray:none;stroke-opacity:1"
       id="rect1"
       width="50"
       height="50"
       x="63.547295"
       y="48.162159" />
    <rect
       style="fill:none;fill-opacity:1;stroke:#ffffff;stroke-width:1.5;stroke-linejoin:miter;stroke-dasharray:none;stroke-opacity:1"
       id="rect1-7"
       width="50"
       height="50"
       x="63.547295"
       y="48.162159" />
    <path
       style="fill:none;stroke:#ffffff;stroke-width:1.5;stroke-linecap:round;stroke-linejoin:round;paint-order:stroke fill markers"
       d="m 69.896544,51.24529 c 0,0 8.211375,7.679611 9.383412,12.224119 1.172037,4.544509 2.50893,13.050796 5.157683,17.641279 2.16196,3.746835 4.978893,3.676861 7.150923,5.397353 2.397335,1.898958 7.727026,7.754657 8.696248,9.918299"
       id="path1"
       sodipodi:nodetypes="czssc" />
    <ellipse
       style="fill:#ffffff;fill-opacity:1;stroke:#ffffff;stroke-width:0.631531;stroke-linecap:round;stroke-linejoin:round;stroke-dasharray:none;stroke-opacity:1;paint-order:stroke fill markers"
       id="path6"
       cx="89.018517"
       cy="60.47916"
       rx="1.1421427"
       ry="1.3784481"
       transform="rotate(0.7376525)" />
    <path
       style="fill:#ffffff;fill-opacity:1;stroke:#ffffff;stroke-width:0.738453;stroke-linecap:round;stroke-linejoin:round;paint-order:stroke fill markers"
       d="m 92.83537,71.599374 0.499522,1.146997 0.707059,-0.363395 -0.607434,-0.87258 z"
       id="path3" />
    <path
       style="fill:#ffffff;fill-opacity:1;stroke:#ffffff;stroke-width:1;stroke-linecap:round;stroke-linejoin:round;stroke-dasharray:none;paint-order:stroke fill markers"
       d="m 90.959229,64.288953 c 0,0 0.796445,1.35312 1.149727,2.207306 0.353281,0.854186 0.69267,2.954173 0.69267,2.954173 l 1.78382,-0.416175 -0.726079,-2.290082 -1.768229,-2.409161 z"
       id="path3-5"
       sodipodi:nodetypes="czccccc" />
    <path
       style="fill:none;fill-opacity:1;stroke:#ffffff;stroke-width:0.6;stroke-linecap:round;stroke-linejoin:round;stroke-dasharray:none;paint-order:stroke fill markers"
       d="m 103.60304,95.933004 c 0,0 -4.094095,-5.729948 -5.380995,-7.960445 -1.28691,-2.230497 -4.174742,-7.531679 -5.094902,-8.916873 -0.92015,-1.385195 -2.159173,-7.725714 -2.159173,-7.725714"
       id="path4"
       sodipodi:nodetypes="czzc" />
    <path
       style="fill:#ffffff;fill-opacity:1;stroke:#ffffff;stroke-width:0.799999;stroke-linecap:round;stroke-linejoin:round;paint-order:stroke fill markers"
       d="m 84.994644,78.402676 1.028988,-4.583673 3.554686,-2.338607 -0.507755,-2.98361 -1.253539,-2.464661 -3.066616,2.003666 -2.810543,-0.566939 -0.04961,-0.0028 2.807708,0.397362 2.607892,-2.174704 -0.137626,-0.546004 -3.385845,0.535629 -2.482653,-0.984566 -0.02739,-0.03542 2.606432,0.852762 3.149785,-0.873108 0.623315,-0.488605 1.645823,-0.152507 c 0,0 1.259287,1.893063 1.737222,3.186769 0.477935,1.293705 0.788477,4.437094 0.788477,4.437094 l -2.104749,5.940066 -0.748355,5.238482 -0.327405,-0.09354 0.280633,-5.519116 1.496711,-4.723988 -3.88209,1.870887 -1.216077,4.303038 z"
       id="path5"
       sodipodi:nodetypes="cccccccccccccccccczccccccccc" />
    <path
       style="fill:#ffffff;fill-opacity:1;stroke:#ffffff;stroke-width:0.4;stroke-linecap:round;stroke-linejoin:round;stroke-dasharray:none;stroke-opacity:1;paint-order:stroke fill markers"
       d="m 86.852195,60.537635 3.125878,0.871244 c 0,0 0.02953,-1.373199 -1.32008,-1.629368 -1.349613,-0.25617 -1.805798,0.758124 -1.805798,0.758124 z"
       id="path7"
       sodipodi:nodetypes="cczc" />
  </g>
</svg>
