<?xml version="1.0" encoding="UTF-8" standalone="no"?>
<!-- Created with Inkscape (http://www.inkscape.org/) -->

<svg
   width="55mm"
   height="55mm"
   viewBox="0 0 54.999998 55"
   version="1.1"
   id="svg1"
   inkscape:version="1.4 (1:1.4+202410161351+e7c3feb100)"
   sodipodi:docname="ski-touring.svg"
   inkscape:export-filename="ski-touring.png"
   inkscape:export-xdpi="300"
   inkscape:export-ydpi="300"
   xmlns:inkscape="http://www.inkscape.org/namespaces/inkscape"
   xmlns:sodipodi="http://sodipodi.sourceforge.net/DTD/sodipodi-0.dtd"
   xmlns="http://www.w3.org/2000/svg"
   xmlns:svg="http://www.w3.org/2000/svg">
  <sodipodi:namedview
     id="namedview1"
     pagecolor="#505050"
     bordercolor="#eeeeee"
     borderopacity="1"
     inkscape:showpageshadow="0"
     inkscape:pageopacity="0"
     inkscape:pagecheckerboard="0"
     inkscape:deskcolor="#505050"
     inkscape:document-units="mm"
     inkscape:zoom="2"
     inkscape:cx="-54.75"
     inkscape:cy="71.5"
     inkscape:window-width="2527"
     inkscape:window-height="1408"
     inkscape:window-x="33"
     inkscape:window-y="0"
     inkscape:window-maximized="1"
     inkscape:current-layer="layer1" />
  <defs
     id="defs1">
    <clipPath
       clipPathUnits="userSpaceOnUse"
       id="clipPath30">
      <rect
         style="fill:#ffd42a;stroke-width:0.264583"
         id="rect30"
         width="50"
         height="50"
         x="63.547295"
         y="48.162159" />
    </clipPath>
  </defs>
  <g
     inkscape:label="Layer 1"
     inkscape:groupmode="layer"
     id="layer1"
     transform="translate(-61.047295,-45.662159)">
    <rect
       style="fill:#aaccff;fill-opacity:1;stroke:#aaccff;stroke-width:5;stroke-linejoin:round;stroke-dasharray:none;stroke-opacity:1"
       id="rect1"
       width="50"
       height="50"
       x="63.547295"
       y="48.162159" />
    <rect
       style="fill:none;fill-opacity:1;stroke:#ffffff;stroke-width:1.5;stroke-linejoin:miter;stroke-dasharray:none;stroke-opacity:1"
       id="rect1-7"
       width="50"
       height="50"
       x="63.547295"
       y="48.162159" />
    <path
       style="fill:none;stroke:#ffffff;stroke-width:1.5;stroke-linecap:round;stroke-linejoin:round;paint-order:stroke fill markers"
       d="m 66.061226,72.292765 c 0,0 5.311501,4.312014 8.822146,6.798548 3.510646,2.486534 4.510731,3.11908 8.899457,5.480515 3.780092,2.03395 10.706595,5.394214 13.278077,6.426341 3.332774,1.337692 10.580124,4.480605 14.075044,5.334627"
       id="path1"
       sodipodi:nodetypes="czssc" />
    <g
       id="g7"
       transform="rotate(-4.9157201,139.01999,-10.489824)">
      <ellipse
         style="fill:#ffffff;fill-opacity:1;stroke:#ffffff;stroke-width:0.631531;stroke-linecap:round;stroke-linejoin:round;stroke-dasharray:none;stroke-opacity:1;paint-order:stroke fill markers"
         id="path6"
         cx="92.204384"
         cy="64.50766"
         rx="1.1421427"
         ry="1.3784481"
         transform="rotate(0.7376525)" />
      <path
         style="fill:#ffffff;fill-opacity:1;stroke:#ffffff;stroke-width:1;stroke-linecap:round;stroke-linejoin:round;stroke-dasharray:none;paint-order:stroke fill markers"
         d="m 94.092964,68.358132 c 0,0 0.796445,1.35312 1.149727,2.207306 0.353281,0.854186 0.69267,2.954173 0.69267,2.954173 l 1.78382,-0.416175 -0.726079,-2.290082 -1.768229,-2.409161 z"
         id="path3-5"
         sodipodi:nodetypes="czccccc" />
      <path
         style="fill:#ffffff;fill-opacity:1;stroke:#ffffff;stroke-width:0.799999;stroke-linecap:round;stroke-linejoin:round;paint-order:stroke fill markers"
         d="m 87.917267,82.412239 1.190733,-4.54434 3.635308,-2.211203 -0.401733,-2.999726 -1.165433,-2.507524 -2.247711,1.933532 -2.597974,0.31861 -0.08622,-0.05612 2.549523,-0.588443 1.883701,-1.968886 -0.118195,-0.550538 -3.402696,0.415339 -2.446213,-1.071904 -0.02612,-0.03637 2.574584,0.944568 3.17874,-0.760969 0.640234,-0.466215 1.650193,-0.0941 c 0,0 1.191429,1.936489 1.62323,3.246315 0.431801,1.309825 0.657641,5.024814 0.657641,5.024814 l -1.978146,4.249285 0.176465,4.261881 -0.415745,0.08038 -0.361754,-4.597542 1.120207,-3.764911 -3.945935,1.732177 -1.367763,4.257253 z"
         id="path5"
         sodipodi:nodetypes="cccccccccccccccccczccccccccc" />
      <path
         style="fill:none;stroke:#ffffff;stroke-width:1;stroke-linecap:round;stroke-linejoin:round;paint-order:stroke fill markers"
         d="m 97.740307,89.311939 c 0,0 -15.710747,-8.086129 -16.630871,-8.970648 -0.920123,-0.884517 -0.942434,-1.408609 -0.942434,-1.408609"
         id="path2"
         sodipodi:nodetypes="czc" />
      <path
         style="fill:none;stroke:#ffffff;stroke-width:0.6;stroke-linecap:round;stroke-linejoin:round;stroke-dasharray:none;paint-order:stroke fill markers"
         d="m 85.181732,71.901345 5.425572,11.599496"
         id="path3"
         sodipodi:nodetypes="cc" />
      <path
         style="fill:none;stroke:#ffffff;stroke-width:0.6;stroke-linecap:round;stroke-linejoin:round;stroke-dasharray:none;paint-order:stroke fill markers"
         d="M 83.640083,67.473258 83.202787,79.916355"
         id="path3-53"
         sodipodi:nodetypes="cc" />
    </g>
    <path
       style="fill:none;stroke:#ffffff;stroke-width:1;stroke-linecap:round;stroke-linejoin:round;stroke-dasharray:none;paint-order:stroke fill markers"
       d="m 68.58792,69.739243 c 0,0 11.178043,-4.743308 14.2875,-7.143751 3.109457,-2.400443 7.540625,-8.202083 7.540625,-8.202083 0,0 6.592262,6.897933 10.054165,9.260417 3.4619,2.362484 10.31875,5.027083 10.31875,5.027083"
       id="path4"
       sodipodi:nodetypes="czczc" />
    <path
       style="fill:none;stroke:#ffffff;stroke-width:1;stroke-linecap:round;stroke-linejoin:round;stroke-dasharray:none;paint-order:stroke fill markers"
       d="m 65.41292,60.743408 c 0,0 5.624744,-2.906482 7.9375,-4.497916 2.312756,-1.591434 3.307291,-3.307291 3.307291,-3.307291 0,0 2.451318,3.562268 4.497918,5.159374 2.0466,1.597106 3.843106,2.560314 3.843106,2.560314"
       id="path7"
       sodipodi:nodetypes="czczc" />
    <path
       style="fill:none;stroke:#ffffff;stroke-width:1;stroke-linecap:round;stroke-linejoin:round;stroke-dasharray:none;paint-order:stroke fill markers"
       d="m 88.299378,59.420492 c 2.631975,2.118798 4.821663,4.051979 3.23255,7.174473 -1.309288,2.572659 -3.919124,2.95156 -5.097929,3.323341 -1.178805,0.371781 -2.942465,1.628818 -3.026658,4.057023 -0.08419,2.428205 1.207801,2.485969 1.842681,4.56601 0.63488,2.080041 -0.625465,4.178536 -0.625465,4.178536"
       id="path8"
       sodipodi:nodetypes="cszzzc" />
  </g>
</svg>
