<?xml version="1.0" encoding="UTF-8" standalone="no"?>
<!-- Created with Inkscape (http://www.inkscape.org/) -->

<svg
   width="55mm"
   height="55mm"
   viewBox="0 0 54.999998 55"
   version="1.1"
   id="svg1"
   inkscape:version="1.4.1 (1:1.4.1+202503302257+93de688d07)"
   sodipodi:docname="via-verrata_grey.svg"
   inkscape:export-filename="via-verrata_grey.png"
   inkscape:export-xdpi="300"
   inkscape:export-ydpi="300"
   xmlns:inkscape="http://www.inkscape.org/namespaces/inkscape"
   xmlns:sodipodi="http://sodipodi.sourceforge.net/DTD/sodipodi-0.dtd"
   xmlns="http://www.w3.org/2000/svg"
   xmlns:svg="http://www.w3.org/2000/svg">
  <sodipodi:namedview
     id="namedview1"
     pagecolor="#505050"
     bordercolor="#eeeeee"
     borderopacity="1"
     inkscape:showpageshadow="0"
     inkscape:pageopacity="0"
     inkscape:pagecheckerboard="0"
     inkscape:deskcolor="#505050"
     inkscape:document-units="mm"
     inkscape:zoom="1.4142136"
     inkscape:cx="-236.52721"
     inkscape:cy="67.175142"
     inkscape:window-width="2527"
     inkscape:window-height="1408"
     inkscape:window-x="33"
     inkscape:window-y="0"
     inkscape:window-maximized="1"
     inkscape:current-layer="layer1" />
  <defs
     id="defs1">
    <clipPath
       clipPathUnits="userSpaceOnUse"
       id="clipPath30">
      <rect
         style="fill:#ffd42a;stroke-width:0.264583"
         id="rect30"
         width="50"
         height="50"
         x="63.547295"
         y="48.162159" />
    </clipPath>
  </defs>
  <g
     inkscape:label="Layer 1"
     inkscape:groupmode="layer"
     id="layer1"
     transform="translate(-61.047295,-45.662159)">
    <rect
       style="fill:#cecece;fill-opacity:1;stroke:#cecece;stroke-width:5;stroke-linejoin:round;stroke-dasharray:none;stroke-opacity:1"
       id="rect1"
       width="50"
       height="50"
       x="63.547295"
       y="48.162159" />
    <rect
       style="fill:none;fill-opacity:1;stroke:#ffffff;stroke-width:1.5;stroke-linejoin:miter;stroke-dasharray:none;stroke-opacity:1"
       id="rect1-7"
       width="50"
       height="50"
       x="63.547295"
       y="48.162159" />
    <path
       style="fill:none;stroke:#ffffff;stroke-width:1.5;stroke-linecap:round;stroke-linejoin:round;paint-order:stroke fill markers"
       d="m 77.995013,51.272689 c 0,0 1.994795,2.197754 3.022747,3.840374 2.165306,3.460056 1.619892,6.176888 1.723337,8.917612 0.177669,4.707252 0.967689,17.263663 1.17683,20.232302 0.245815,3.489212 -0.224243,8.970734 0.09017,11.321464"
       id="path1"
       sodipodi:nodetypes="csssc" />
    <g
       id="g2"
       transform="matrix(1.3483003,0,0,1.3483003,-27.491338,-21.710996)">
      <ellipse
         style="fill:#ffffff;fill-opacity:1;stroke:#ffffff;stroke-width:0.631531;stroke-linecap:round;stroke-linejoin:round;stroke-dasharray:none;stroke-opacity:1;paint-order:stroke fill markers"
         id="path6"
         cx="93.20327"
         cy="58.154232"
         rx="1.1421427"
         ry="1.3784481"
         transform="rotate(2.4727211)" />
      <path
         style="fill:#ffffff;fill-opacity:1;stroke:#ffffff;stroke-width:1;stroke-linecap:round;stroke-linejoin:round;stroke-dasharray:none;paint-order:stroke fill markers"
         d="m 92.983729,64.807513 c 0,0 0.463943,1.500006 0.611332,2.412539 0.147389,0.912534 -0.0052,3.034289 -0.0052,3.034289 l 1.831717,0.0052 -0.180003,-2.395675 -1.166841,-2.751213 z"
         id="path3-5"
         sodipodi:nodetypes="czccccc" />
      <path
         style="fill:#ffffff;fill-opacity:1;stroke:#ffffff;stroke-width:0.799999;stroke-linecap:round;stroke-linejoin:round;paint-order:stroke fill markers"
         d="m 85.75502,75.804884 0.941262,-4.32782 3.426447,0.193701 c 0,0 0.373567,-1.443029 0.378129,-2.323364 0.0046,-0.880335 -0.442254,-2.828841 -0.442254,-2.828841 l -3.125877,1.909896 -2.792088,-0.651777 -0.0495,-0.0043 2.79439,0.482191 2.672542,-2.094745 -0.121031,-0.54992 -3.400511,0.432866 -2.451704,-1.059284 -0.0263,-0.03623 2.579417,0.931288 3.174777,-0.777338 0.637823,-0.469508 1.649686,-0.102605 c 0,0 0.73367,2.234345 0.751266,3.635471 0.0176,1.401127 -0.05829,1.709383 0.02802,3.537189 0.04335,0.918033 -0.655742,1.465394 -1.519208,1.984417 -0.673445,0.493106 -1.82533,2.545295 -1.871483,2.601705 l -0.863174,4.233271 -0.226866,0.0095 0.651035,-4.356212 1.49765,-3.320514 -3.008161,-0.582881 -1.013701,3.612188 z"
         id="path5"
         sodipodi:nodetypes="ccczcccccccccccccczsccccccccc" />
      <path
         style="fill:#ffffff;fill-opacity:1;stroke:#ffffff;stroke-width:0.4;stroke-linecap:round;stroke-linejoin:round;stroke-dasharray:none;stroke-opacity:1;paint-order:stroke fill markers"
         d="m 89.26058,60.997376 3.098065,0.96549 c 0,0 0.07109,-1.371675 -1.27014,-1.66859 -1.341238,-0.296917 -1.827925,0.7031 -1.827925,0.7031 z"
         id="path7"
         sodipodi:nodetypes="cczc" />
    </g>
    <path
       style="fill:#ffffff;stroke:#ffffff;stroke-width:1;stroke-linecap:round;stroke-linejoin:round;stroke-dasharray:none;stroke-opacity:1;paint-order:stroke fill markers"
       d="m 83.72896,73.388221 4.405012,-0.06615"
       id="path2"
       sodipodi:nodetypes="cc" />
    <path
       style="fill:#ffffff;stroke:#ffffff;stroke-width:1;stroke-linecap:round;stroke-linejoin:round;stroke-dasharray:none;stroke-opacity:1;paint-order:stroke fill markers"
       d="m 84.381543,81.868591 5.661783,-0.06615"
       id="path2-5"
       sodipodi:nodetypes="cc" />
    <path
       style="fill:#ffffff;stroke:#ffffff;stroke-width:1;stroke-linecap:round;stroke-linejoin:round;stroke-dasharray:none;stroke-opacity:1;paint-order:stroke fill markers"
       d="m 84.083886,88.516245 7.712304,-0.06615"
       id="path2-5-6-6"
       sodipodi:nodetypes="cc" />
    <path
       style="fill:#ffffff;stroke:#ffffff;stroke-width:1;stroke-linecap:round;stroke-linejoin:round;stroke-dasharray:none;stroke-opacity:1;paint-order:stroke fill markers"
       d="m 83.4555,68.341767 2.68522,-0.06615"
       id="path2-5-2"
       sodipodi:nodetypes="cc" />
    <path
       style="fill:#ffffff;stroke:#ffffff;stroke-width:1;stroke-linecap:round;stroke-linejoin:round;stroke-dasharray:none;stroke-opacity:1;paint-order:stroke fill markers"
       d="m 82.76097,59.676662 4.801887,-0.06615"
       id="path2-5-2-7-9"
       sodipodi:nodetypes="cc" />
  </g>
</svg>
